<mxfile host="Electron" modified="2024-06-17T08:01:35.512Z" agent="Mozilla/5.0 (Windows NT 10.0; Win64; x64) AppleWebKit/537.36 (KHTML, like Gecko) draw.io/21.2.1 Chrome/112.0.5615.87 Electron/24.1.2 Safari/537.36" etag="PpRZtpzANGXxI6TCVwWE" version="21.2.1" type="device">
  <diagram id="C5RBs43oDa-KdzZeNtuy" name="Page-1">
    <mxGraphModel dx="1050" dy="629" grid="1" gridSize="10" guides="1" tooltips="1" connect="1" arrows="1" fold="1" page="1" pageScale="1" pageWidth="827" pageHeight="1169" math="0" shadow="0">
      <root>
        <mxCell id="WIyWlLk6GJQsqaUBKTNV-0" />
        <mxCell id="WIyWlLk6GJQsqaUBKTNV-1" parent="WIyWlLk6GJQsqaUBKTNV-0" />
        <mxCell id="7aC3aS_H9qBrG9DA6CU1-0" value="PatchOperation 进行了逻辑封装" style="text;html=1;strokeColor=none;fillColor=none;align=center;verticalAlign=middle;whiteSpace=wrap;rounded=0;" vertex="1" parent="WIyWlLk6GJQsqaUBKTNV-1">
          <mxGeometry x="50" y="10" width="210" height="30" as="geometry" />
        </mxCell>
        <mxCell id="7aC3aS_H9qBrG9DA6CU1-15" style="edgeStyle=orthogonalEdgeStyle;rounded=0;orthogonalLoop=1;jettySize=auto;html=1;" edge="1" parent="WIyWlLk6GJQsqaUBKTNV-1" source="7aC3aS_H9qBrG9DA6CU1-2" target="7aC3aS_H9qBrG9DA6CU1-3">
          <mxGeometry relative="1" as="geometry" />
        </mxCell>
        <mxCell id="7aC3aS_H9qBrG9DA6CU1-2" value="FsmInitializePackage" style="rounded=1;whiteSpace=wrap;html=1;fillColor=#ffe6cc;strokeColor=#d79b00;" vertex="1" parent="WIyWlLk6GJQsqaUBKTNV-1">
          <mxGeometry x="160" y="60" width="120" height="60" as="geometry" />
        </mxCell>
        <mxCell id="7aC3aS_H9qBrG9DA6CU1-16" style="edgeStyle=orthogonalEdgeStyle;rounded=0;orthogonalLoop=1;jettySize=auto;html=1;entryX=0.5;entryY=0;entryDx=0;entryDy=0;" edge="1" parent="WIyWlLk6GJQsqaUBKTNV-1" source="7aC3aS_H9qBrG9DA6CU1-3" target="7aC3aS_H9qBrG9DA6CU1-6">
          <mxGeometry relative="1" as="geometry" />
        </mxCell>
        <mxCell id="7aC3aS_H9qBrG9DA6CU1-3" value="FsmUpdatePackageVersion" style="rounded=1;whiteSpace=wrap;html=1;" vertex="1" parent="WIyWlLk6GJQsqaUBKTNV-1">
          <mxGeometry x="125" y="190" width="190" height="70" as="geometry" />
        </mxCell>
        <mxCell id="7aC3aS_H9qBrG9DA6CU1-17" style="edgeStyle=orthogonalEdgeStyle;rounded=0;orthogonalLoop=1;jettySize=auto;html=1;" edge="1" parent="WIyWlLk6GJQsqaUBKTNV-1" source="7aC3aS_H9qBrG9DA6CU1-6" target="7aC3aS_H9qBrG9DA6CU1-7">
          <mxGeometry relative="1" as="geometry" />
        </mxCell>
        <mxCell id="7aC3aS_H9qBrG9DA6CU1-6" value="FsmUpdatePackageManifest" style="rounded=1;whiteSpace=wrap;html=1;" vertex="1" parent="WIyWlLk6GJQsqaUBKTNV-1">
          <mxGeometry x="130" y="310" width="190" height="70" as="geometry" />
        </mxCell>
        <mxCell id="7aC3aS_H9qBrG9DA6CU1-18" style="edgeStyle=orthogonalEdgeStyle;rounded=0;orthogonalLoop=1;jettySize=auto;html=1;" edge="1" parent="WIyWlLk6GJQsqaUBKTNV-1" source="7aC3aS_H9qBrG9DA6CU1-7" target="7aC3aS_H9qBrG9DA6CU1-9">
          <mxGeometry relative="1" as="geometry" />
        </mxCell>
        <mxCell id="7aC3aS_H9qBrG9DA6CU1-7" value="FsmCreatePackageDownloader" style="rounded=1;whiteSpace=wrap;html=1;" vertex="1" parent="WIyWlLk6GJQsqaUBKTNV-1">
          <mxGeometry x="125" y="440" width="190" height="70" as="geometry" />
        </mxCell>
        <mxCell id="7aC3aS_H9qBrG9DA6CU1-19" style="edgeStyle=orthogonalEdgeStyle;rounded=0;orthogonalLoop=1;jettySize=auto;html=1;entryX=0;entryY=0.5;entryDx=0;entryDy=0;" edge="1" parent="WIyWlLk6GJQsqaUBKTNV-1" source="7aC3aS_H9qBrG9DA6CU1-9" target="7aC3aS_H9qBrG9DA6CU1-11">
          <mxGeometry relative="1" as="geometry" />
        </mxCell>
        <mxCell id="7aC3aS_H9qBrG9DA6CU1-9" value="FsmDownloadPackageFiles" style="rounded=1;whiteSpace=wrap;html=1;" vertex="1" parent="WIyWlLk6GJQsqaUBKTNV-1">
          <mxGeometry x="400" y="450" width="190" height="70" as="geometry" />
        </mxCell>
        <mxCell id="7aC3aS_H9qBrG9DA6CU1-20" style="edgeStyle=orthogonalEdgeStyle;rounded=0;orthogonalLoop=1;jettySize=auto;html=1;entryX=0.5;entryY=1;entryDx=0;entryDy=0;" edge="1" parent="WIyWlLk6GJQsqaUBKTNV-1" source="7aC3aS_H9qBrG9DA6CU1-11" target="7aC3aS_H9qBrG9DA6CU1-12">
          <mxGeometry relative="1" as="geometry" />
        </mxCell>
        <mxCell id="7aC3aS_H9qBrG9DA6CU1-11" value="FsmDownloadPackageOver" style="rounded=1;whiteSpace=wrap;html=1;" vertex="1" parent="WIyWlLk6GJQsqaUBKTNV-1">
          <mxGeometry x="637" y="450" width="190" height="70" as="geometry" />
        </mxCell>
        <mxCell id="7aC3aS_H9qBrG9DA6CU1-21" style="edgeStyle=orthogonalEdgeStyle;rounded=0;orthogonalLoop=1;jettySize=auto;html=1;entryX=0.422;entryY=1.04;entryDx=0;entryDy=0;entryPerimeter=0;" edge="1" parent="WIyWlLk6GJQsqaUBKTNV-1" source="7aC3aS_H9qBrG9DA6CU1-12" target="7aC3aS_H9qBrG9DA6CU1-14">
          <mxGeometry relative="1" as="geometry" />
        </mxCell>
        <mxCell id="7aC3aS_H9qBrG9DA6CU1-12" value="FsmClearPackageCache" style="rounded=1;whiteSpace=wrap;html=1;" vertex="1" parent="WIyWlLk6GJQsqaUBKTNV-1">
          <mxGeometry x="630" y="290" width="190" height="70" as="geometry" />
        </mxCell>
        <mxCell id="7aC3aS_H9qBrG9DA6CU1-14" value="FmsUpdateDone" style="rounded=1;whiteSpace=wrap;html=1;" vertex="1" parent="WIyWlLk6GJQsqaUBKTNV-1">
          <mxGeometry x="637" y="140" width="190" height="70" as="geometry" />
        </mxCell>
      </root>
    </mxGraphModel>
  </diagram>
</mxfile>
